<svg id="Layer_1" data-name="Layer 1" xmlns="http://www.w3.org/2000/svg" viewBox="0 0 328.99 85.1"><defs><style>.cls-1{fill:#ee3124;}.cls-2{fill:#fff;}.cls-3,.cls-5{fill:none;stroke-linecap:square;stroke-width:3px;}.cls-3{stroke:#414042;}.cls-4{fill:#414042;}.cls-5{stroke:#0d173f;}.cls-6{fill:#0d173f;}.cls-7{font-size:21px;fill:#231f20;font-family:MyriadPro-Regular, Myriad Pro;}.cls-8{letter-spacing:0em;}.cls-9{letter-spacing:-0.08em;}.cls-10{letter-spacing:0em;}</style></defs><path class="cls-1" d="M437,98.32a15.23,15.23,0,0,0-10.74-10.74C416.75,85,378.76,85,378.76,85s-38,0-47.46,2.54a15.21,15.21,0,0,0-10.74,10.74C318,107.79,318,127.56,318,127.56s0,19.77,2.54,29.24a15.21,15.21,0,0,0,10.74,10.74c9.47,2.54,47.46,2.54,47.46,2.54s38,0,47.47-2.54A15.23,15.23,0,0,0,437,156.8c2.54-9.47,2.54-29.24,2.54-29.24S439.51,107.79,437,98.32Z" transform="translate(-110.52 -85.01)"/><polygon class="cls-2" points="256.1 60.77 287.66 42.55 256.1 24.33 256.1 60.77"/><path class="cls-1" d="M112.72,99a15.23,15.23,0,0,1,10.62-10.87c9.44-2.65,47.43-3.09,47.43-3.09s38-.44,47.49,2a15.2,15.2,0,0,1,10.86,10.61c2.65,9.45,2.88,29.21,2.88,29.21s.23,19.77-2.2,29.27A15.21,15.21,0,0,1,219.19,167c-9.45,2.64-47.43,3.09-47.43,3.09s-38,.44-47.49-2a15.23,15.23,0,0,1-10.87-10.62c-2.65-9.44-2.88-29.2-2.88-29.2S110.29,108.5,112.72,99Z" transform="translate(-110.52 -85.01)"/><polygon class="cls-2" points="73.1 60.63 41.33 42.77 72.68 24.18 73.1 60.63"/><path class="cls-3" d="M251.86,121.56c1.63.08,3,.09,3.94.08s1.62,0,2.09-.09a17,17,0,0,0,2.54-.38,18,18,0,0,0,2.47-.77,25.62,25.62,0,0,0,5.94-3.62c1.22-1,2.86-2.63,6.09-5.87a35.58,35.58,0,0,1,5.56-4.94,14.89,14.89,0,0,1,3.63-1.92,15.1,15.1,0,0,1,5.63-.62c3.08,0,5.9.12,8.41.23" transform="translate(-110.52 -85.01)"/><polygon class="cls-4" points="185.63 24.55 196.24 19.02 186.15 12.6 185.63 24.55"/><path class="cls-5" d="M251.68,103.93c1.62-.11,2.95-.15,3.93-.16s1.63,0,2.1,0a18.05,18.05,0,0,1,2.54.32,20.74,20.74,0,0,1,2.49.72,25.8,25.8,0,0,1,6,3.5c1.24,1,2.92,2.57,6.22,5.74a35.64,35.64,0,0,0,5.66,4.82,13,13,0,0,0,9.31,2.35c3.08-.11,5.89-.25,8.4-.41" transform="translate(-110.52 -85.01)"/><polygon class="cls-6" points="186.46 41.92 196.42 35.28 185.69 29.98 186.46 41.92"/><text class="cls-7" transform="translate(125.06 61.44)">MIG<tspan class="cls-8" x="35.47" y="0">R</tspan><tspan class="cls-9" x="46.87" y="0">A</tspan><tspan class="cls-10" x="58.11" y="0">TE</tspan></text></svg>