<svg id="Layer_1" data-name="Layer 1" xmlns="http://www.w3.org/2000/svg" viewBox="0 0 333.87 49.97"><defs><style>.cls-1{fill:#ee3124;}.cls-2{fill:#fff;}.cls-3{font-size:25.06px;fill:#231f20;font-family:CenturyGothic-Bold, Century Gothic;font-weight:700;}</style></defs><path class="cls-1" d="M178,110.38a9,9,0,0,0-6.31-6.32c-5.57-1.49-27.89-1.49-27.89-1.49s-22.32,0-27.89,1.49a9,9,0,0,0-6.31,6.32c-1.49,5.56-1.49,17.18-1.49,17.18s0,11.61,1.49,17.18a8.94,8.94,0,0,0,6.31,6.31c5.57,1.5,27.89,1.5,27.89,1.5s22.32,0,27.89-1.5a8.94,8.94,0,0,0,6.31-6.31c1.49-5.57,1.49-17.18,1.49-17.18S179.46,115.94,178,110.38Z" transform="translate(-108.08 -102.57)"/><polygon class="cls-2" points="28.55 35.69 47.1 24.99 28.55 14.28 28.55 35.69"/><text class="cls-3" transform="translate(83.88 31.91) scale(0.88 1)">SUBSCRIPTION MIGRATE</text></svg>