<svg xmlns="http://www.w3.org/2000/svg" viewBox="0 0 308.99 139.02"><defs><style>.cls-1{isolation:isolate;}.cls-2,.cls-4{fill:#ee3124;}.cls-3{fill:#fff;}.cls-4{opacity:0.6;mix-blend-mode:lighten;}.cls-5{fill:none;stroke:#555;stroke-linecap:square;stroke-width:3px;}.cls-6,.cls-7{fill:#555;}.cls-7{font-size:48px;font-family:MyriadPro-Bold, Myriad Pro;font-weight:700;letter-spacing:0.02em;}.cls-8{letter-spacing:0.03em;}.cls-9{letter-spacing:-0.06em;}.cls-10{letter-spacing:0.03em;}</style></defs><g class="cls-1"><g id="Layer_1" data-name="Layer 1"><path class="cls-2" d="M1195.84,599.94a15.2,15.2,0,0,0-10.74-10.74c-9.47-2.54-47.46-2.54-47.46-2.54s-38,0-47.47,2.54a15.21,15.21,0,0,0-10.74,10.74c-2.54,9.47-2.54,29.24-2.54,29.24s0,19.77,2.54,29.24a15.23,15.23,0,0,0,10.74,10.74c9.48,2.54,47.47,2.54,47.47,2.54s38,0,47.46-2.54a15.21,15.21,0,0,0,10.74-10.74c2.54-9.47,2.54-29.24,2.54-29.24S1198.38,609.41,1195.84,599.94Z" transform="translate(-889.39 -586.63)"/><polygon class="cls-3" points="236.1 60.77 267.66 42.55 236.1 24.33 236.1 60.77"/><path class="cls-4" d="M891.6,600.62a15.2,15.2,0,0,1,10.61-10.87c9.44-2.65,47.43-3.09,47.43-3.09s38-.44,47.49,2A15.21,15.21,0,0,1,1008,599.26c2.64,9.45,2.87,29.21,2.87,29.21s.23,19.77-2.19,29.27a15.21,15.21,0,0,1-10.62,10.86c-9.44,2.65-47.43,3.1-47.43,3.1s-38,.44-47.49-2a15.21,15.21,0,0,1-10.86-10.62c-2.65-9.44-2.88-29.21-2.88-29.21S889.17,610.12,891.6,600.62Z" transform="translate(-889.39 -586.63)"/><polygon class="cls-3" points="73.1 60.63 41.33 42.77 72.68 24.18 73.1 60.63"/><path class="cls-5" d="M1017.87,638.8c1.62.08,3,.09,3.93.08s1.63,0,2.1-.09a18,18,0,0,0,2.53-.37,19.81,19.81,0,0,0,2.47-.77,25.3,25.3,0,0,0,5.94-3.63c1.22-1,2.87-2.63,6.1-5.86a34.64,34.64,0,0,1,5.56-4.94,12.93,12.93,0,0,1,9.25-2.55c3.08,0,5.9.12,8.41.23" transform="translate(-889.39 -586.63)"/><polygon class="cls-6" points="172.76 40.17 183.38 34.64 173.28 28.22 172.76 40.17"/><path class="cls-5" d="M1017.69,621.17c1.61-.11,2.95-.15,3.93-.16s1.62,0,2.09,0a18.33,18.33,0,0,1,2.55.32,18.87,18.87,0,0,1,2.48.72,25.44,25.44,0,0,1,6,3.5c1.24,1,2.91,2.57,6.22,5.73a35.62,35.62,0,0,0,5.65,4.82,13,13,0,0,0,9.32,2.35c3.07-.1,5.89-.25,8.4-.41" transform="translate(-889.39 -586.63)"/><polygon class="cls-6" points="173.59 57.54 183.55 50.91 172.82 45.6 173.59 57.54"/><text class="cls-7" transform="translate(52.61 127.02)">MIG<tspan class="cls-8" x="90.62" y="0">R</tspan><tspan class="cls-9" x="120.72" y="0">A</tspan><tspan class="cls-10" x="149.42" y="0">TE</tspan></text></g></g></svg>