<svg xmlns="http://www.w3.org/2000/svg" viewBox="0 0 334.99 85.1"><defs><style>.cls-1{isolation:isolate;}.cls-2,.cls-4{fill:#ee3124;}.cls-3{fill:#fff;}.cls-4{opacity:0.6;mix-blend-mode:lighten;}.cls-5{fill:none;stroke:#555;stroke-linecap:square;stroke-width:3px;}.cls-6,.cls-7{fill:#555;}.cls-7{font-size:22px;font-family:MyriadPro-Regular, Myriad Pro;letter-spacing:0.03em;}.cls-8{letter-spacing:0.03em;}.cls-9{letter-spacing:-0.05em;}.cls-10{letter-spacing:0.03em;}</style></defs><g class="cls-1"><g id="Layer_1" data-name="Layer 1"><path class="cls-2" d="M1210.07,599.34a15.21,15.21,0,0,0-10.74-10.74c-9.47-2.54-47.46-2.54-47.46-2.54s-38,0-47.46,2.54a15.21,15.21,0,0,0-10.74,10.74c-2.54,9.48-2.54,29.24-2.54,29.24s0,19.77,2.54,29.24a15.18,15.18,0,0,0,10.74,10.74c9.47,2.54,47.46,2.54,47.46,2.54s38,0,47.46-2.54a15.18,15.18,0,0,0,10.74-10.74c2.54-9.47,2.54-29.24,2.54-29.24S1212.61,608.82,1210.07,599.34Z" transform="translate(-877.63 -586.03)"/><polygon class="cls-3" points="262.1 60.77 293.66 42.55 262.1 24.33 262.1 60.77"/><path class="cls-4" d="M879.83,600a15.2,15.2,0,0,1,10.62-10.86c9.44-2.65,47.43-3.09,47.43-3.09s38-.45,47.49,2a15.23,15.23,0,0,1,10.86,10.62c2.65,9.44,2.88,29.21,2.88,29.21s.23,19.76-2.2,29.26A15.21,15.21,0,0,1,986.3,668c-9.45,2.65-47.44,3.09-47.44,3.09s-38,.44-47.49-2a15.2,15.2,0,0,1-10.86-10.61c-2.65-9.45-2.88-29.21-2.88-29.21S877.4,609.52,879.83,600Z" transform="translate(-877.63 -586.03)"/><polygon class="cls-3" points="73.1 60.63 41.33 42.77 72.68 24.18 73.1 60.63"/><path class="cls-5" d="M1021.7,622.45c1.62.07,3,.08,3.93.07s1.63,0,2.1-.08a20.29,20.29,0,0,0,2.53-.38,19.81,19.81,0,0,0,2.47-.77,25.3,25.3,0,0,0,5.94-3.63c1.22-1,2.86-2.63,6.1-5.86a35.06,35.06,0,0,1,5.55-4.94,13,13,0,0,1,9.26-2.55c3.08,0,5.9.13,8.41.23" transform="translate(-877.63 -586.03)"/><polygon class="cls-6" points="188.36 24.41 198.97 18.88 188.88 12.46 188.36 24.41"/><path class="cls-5" d="M1021.51,604.82c1.62-.12,3-.16,3.94-.17s1.62,0,2.09.05a18.05,18.05,0,0,1,2.54.32,18.77,18.77,0,0,1,2.49.72,25.44,25.44,0,0,1,6,3.5c1.24,1,2.91,2.57,6.21,5.73a35,35,0,0,0,5.66,4.82,13,13,0,0,0,9.31,2.35c3.08-.1,5.9-.25,8.41-.41" transform="translate(-877.63 -586.03)"/><polygon class="cls-6" points="189.19 41.78 199.15 35.14 188.42 29.84 189.19 41.78"/><text class="cls-7" transform="translate(124.25 61.3)">MIG<tspan class="cls-8" x="38.81" y="0">R</tspan><tspan class="cls-9" x="51.3" y="0">A</tspan><tspan class="cls-10" x="63.62" y="0">TE</tspan></text></g></g></svg>