<svg id="Layer_1" data-name="Layer 1" xmlns="http://www.w3.org/2000/svg" viewBox="0 0 344.51 41.26"><defs><style>.cls-1{fill:#414042;}.cls-2{fill:#fff;}.cls-3{fill:#ee3124;}.cls-4{fill:none;opacity:0;}</style></defs><path class="cls-1" d="M184.85,66.49a7.37,7.37,0,0,0-5.22-5.21C175,60,156.61,60,156.61,60s-18.44,0-23,1.24a7.37,7.37,0,0,0-5.22,5.21c-1.23,4.59-1.23,14.19-1.23,14.19s0,9.59,1.23,14.18a7.37,7.37,0,0,0,5.22,5.21c4.59,1.24,23,1.24,23,1.24s18.43,0,23-1.24a7.37,7.37,0,0,0,5.22-5.21c1.23-4.59,1.23-14.18,1.23-14.18S186.08,71.08,184.85,66.49Z" transform="translate(-127.13 -60.04)"/><polygon class="cls-2" points="23.58 29.47 38.89 20.63 23.58 11.79 23.58 29.47"/><path class="cls-3" d="M196.11,65.7h3.82L204.72,82l4.82-16.31h3.83l3.46,23.38H213l-2.21-14.76-4.39,14.76H203l-4.34-14.76-2.27,14.76h-3.83Z" transform="translate(-127.13 -60.04)"/><path class="cls-3" d="M219.68,65.7h3.89V89.08h-3.89Z" transform="translate(-127.13 -60.04)"/><path class="cls-3" d="M247,69.52l-2.76,3.1a7.82,7.82,0,0,0-6.13-3.15,6.57,6.57,0,0,0-5.1,2.29A8,8,0,0,0,231,77.32a8.23,8.23,0,0,0,2.14,5.73,6.83,6.83,0,0,0,5.26,2.36,5.94,5.94,0,0,0,3.44-1,6.69,6.69,0,0,0,2.25-3h-6V77.22h10.38l0,1a12.54,12.54,0,0,1-1.4,5.81,10.6,10.6,0,0,1-3.63,4.2,9.43,9.43,0,0,1-5.23,1.44,10.46,10.46,0,0,1-5.73-1.58,11,11,0,0,1-4-4.5,14,14,0,0,1-1.46-6.31,12.67,12.67,0,0,1,2.7-8.07,10.16,10.16,0,0,1,8.36-4.08,11.48,11.48,0,0,1,5,1.12A11.77,11.77,0,0,1,247,69.52Z" transform="translate(-127.13 -60.04)"/><path class="cls-3" d="M252.39,65.7h4.16a12,12,0,0,1,4.86.7,5.22,5.22,0,0,1,2.34,2.29,7.76,7.76,0,0,1,.88,3.8,7.19,7.19,0,0,1-1,3.85,6,6,0,0,1-2.94,2.34l4.89,10.4h-4.3l-4.64-9.9h-.36v9.9h-3.92Zm3.92,9.14h1.23a4.35,4.35,0,0,0,2.58-.56,2.22,2.22,0,0,0,.71-1.85,2.51,2.51,0,0,0-.35-1.33,1.94,1.94,0,0,0-.94-.81,6.15,6.15,0,0,0-2.15-.25h-1.08Z" transform="translate(-127.13 -60.04)"/><path class="cls-3" d="M275.08,65.7h4L287,89.08h-4.09l-1.61-4.82h-8.42l-1.68,4.82h-4.08Zm2,6.2-2.77,8h5.52Z" transform="translate(-127.13 -60.04)"/><path class="cls-3" d="M288,65.7h11.4v4.39h-3.76v19h-4v-19H288Z" transform="translate(-127.13 -60.04)"/><path class="cls-3" d="M302.11,65.7h11.26v4.36H306v4.22h7.36v4.28H306v6.15h7.36v4.37H302.11Z" transform="translate(-127.13 -60.04)"/><path class="cls-3" d="M344,69.81l-2.74,3q-2.81-3.36-6.31-3.36a6.41,6.41,0,0,0-5,2.29,8.23,8.23,0,0,0-2,5.65,9.21,9.21,0,0,0,.9,4.15,6.89,6.89,0,0,0,2.54,2.85,6.74,6.74,0,0,0,3.64,1,6.83,6.83,0,0,0,3.13-.72A11.5,11.5,0,0,0,341.29,82L344,85.18a14.89,14.89,0,0,1-4.32,3.51,10.61,10.61,0,0,1-4.64,1,10.06,10.06,0,0,1-7.88-3.45,12.88,12.88,0,0,1-3.06-8.86,13.39,13.39,0,0,1,1.39-6.21,11.07,11.07,0,0,1,4-4.37,10.25,10.25,0,0,1,5.6-1.65A10.54,10.54,0,0,1,340,66.34,12,12,0,0,1,344,69.81Z" transform="translate(-127.13 -60.04)"/><path class="cls-3" d="M347.46,65.7h4v8.82h6.89V65.7h4V89.08h-4V78.83h-6.89V89.08h-4Z" transform="translate(-127.13 -60.04)"/><path class="cls-3" d="M373.3,65.7h4l7.93,23.38h-4.08l-1.61-4.82h-8.42l-1.68,4.82h-4.08Zm2,6.2-2.77,8h5.52Z" transform="translate(-127.13 -60.04)"/><path class="cls-3" d="M388.27,65.7H392l8.83,15.38V65.7h3.93V89.08H401L392.2,73.74V89.08h-3.93Z" transform="translate(-127.13 -60.04)"/><path class="cls-3" d="M409.52,65.7h3.77l8.83,15.38V65.7h3.93V89.08h-3.78l-8.82-15.34V89.08h-3.93Z" transform="translate(-127.13 -60.04)"/><path class="cls-3" d="M430.77,65.7H442v4.36h-7.37v4.22H442v4.28h-7.37v6.15H442v4.37H430.77Z" transform="translate(-127.13 -60.04)"/><path class="cls-3" d="M445.7,65.7h3.93V84.83h5.72v4.25H445.7Z" transform="translate(-127.13 -60.04)"/><path class="cls-3" d="M469.16,68.88l-2.9,2.91c-1-1.61-2.07-2.42-3.12-2.42a1.78,1.78,0,0,0-1.27.47,1.44,1.44,0,0,0-.49,1.06,2,2,0,0,0,.35,1.11,27.8,27.8,0,0,0,2.88,3c1.5,1.42,2.41,2.32,2.73,2.69A9.42,9.42,0,0,1,469,80.31a7.33,7.33,0,0,1,.5,2.73,6.67,6.67,0,0,1-1.76,4.75,6,6,0,0,1-4.57,1.87,6.2,6.2,0,0,1-3.84-1.22,9.56,9.56,0,0,1-2.81-3.85l3.31-2.25c1,2.06,2.13,3.1,3.42,3.1a2.36,2.36,0,0,0,1.7-.67,2.09,2.09,0,0,0,.69-1.54,2.86,2.86,0,0,0-.52-1.59,15.6,15.6,0,0,0-2.29-2.43,24.55,24.55,0,0,1-4.35-4.81,6.63,6.63,0,0,1-1-3.37,5.88,5.88,0,0,1,1.64-4.17,5.31,5.31,0,0,1,4-1.74,5.77,5.77,0,0,1,2.94.81A11.09,11.09,0,0,1,469.16,68.88Z" transform="translate(-127.13 -60.04)"/><path class="cls-4" d="M460,105.19" transform="translate(-127.13 -60.04)"/><line class="cls-3" x1="63.88" y1="32.71" x2="344.51" y2="32.71"/><rect class="cls-1" x="63.88" y="32.21" width="280.63" height="1"/></svg>